# xmcd CD database file
#
# Track frame offsets:
#	150
#	13155
#	44712
#	56487
#	67752
#	80875
#	96165
#	110457
#	125612
#	140320
#	157160
#	171040
#	238815
#	255060
#	270152
#	280925
#	292905
#
# Disc length: 4098 seconds
#
# Revision: 6
# Processed by: cddbd v1.5.1PL0 Copyright (c) Steve Scherf et al.
# Submitted via: CDex 1.51
#
DISCID=ed100011
DTITLE=Dave Brubeck Quartet Featuring Paul Desmond - Stardust
DYEAR=1983
DGENRE=Jazz
TTITLE0=Mam'selle
TTITLE1=Stardust
TTITLE2=Frenesi
TTITLE3=Me And My Shadow
TTITLE4=At A Perfume Counter
TTITLE5=Crazy Chris
TTITLE6=A Foggy Day
TTITLE7=Somebody Loves Me
TTITLE8=Lyons Busy
TTITLE9=Look For The Silver Lining
TTITLE10=Stardust
TTITLE11=At A Perfume Counter
TTITLE12=Alice in Wonderland
TTITLE13=All the Things You Are
TTITLE14=Lulu's Back in Town
TTITLE15=My Romance
TTITLE16=Just One Of Those Things
EXTD=YEAR: 1983
EXTT0=
EXTT1=
EXTT2=
EXTT3=
EXTT4=
EXTT5=
EXTT6=
EXTT7=
EXTT8=
EXTT9=
EXTT10=
EXTT11=
EXTT12=
EXTT13=
EXTT14=
EXTT15=
EXTT16=
PLAYORDER=
